Coordinates
version=1
nRows=14
nColumns=24
inDegrees=yes

Units are S.I. units (second, meters, Newtons, ...)
Angles are in degrees.

endheader
time	pelvis_tilt	pelvis_list	pelvis_rotation	pelvis_tx	pelvis_ty	pelvis_tz	hip_flexion_r	hip_adduction_r	hip_rotation_r	knee_angle_r	ankle_angle_r	subtalar_angle_r	mtp_angle_r	hip_flexion_l	hip_adduction_l	hip_rotation_l	knee_angle_l	ankle_angle_l	subtalar_angle_l	mtp_angle_l	lumbar_extension	lumbar_bending	lumbar_rotation
      1.30833333	      0.70103043	      4.61392477	     -2.47763984	      0.18413374	      1.06836507	      0.33410626	     15.46875152	     -6.68395585	     -2.29223031	    -68.50048459	     -5.21486485	    -16.37819539	      4.19823851	      6.97445666	      8.99671320	     -4.53691345	     -7.83407753	      1.22469535	     -3.46001118	     -1.83061126	      2.95853591	     -2.61226464	     -0.11754089
      1.31250000	      0.71973059	      4.59997267	     -2.48831530	      0.18906496	      1.06887907	      0.33390583	     16.06460455	     -6.59252583	     -2.04283259	    -68.45116536	     -5.00902365	    -16.39598270	      4.17803977	      6.60450544	      9.01199854	     -4.41589624	     -7.71393349	      1.28622189	     -3.41093943	     -1.83614849	      2.87352443	     -2.56943442	     -0.15271319
      1.31666667	      0.70754632	      4.65712551	     -2.60247237	      0.19388862	      1.06924746	      0.33378655	     16.73546084	     -6.55132541	     -1.65457271	    -68.42575003	     -4.13258591	    -16.29207703	      4.09869236	      6.29680759	      9.10364485	     -4.52394746	     -7.65068706	      1.57729165	     -3.47402068	     -1.86621133	      2.87519918	     -2.65823029	     -0.20116855
      1.32083333	      0.68175004	      4.67651432	     -2.66557304	      0.19878451	      1.06962809	      0.33361289	     17.37598865	     -6.47392451	     -1.32556189	    -68.29743962	     -3.50866838	    -16.03040439	      4.00943711	      5.98379454	      9.15972954	     -4.49701903	     -7.55023904	      1.75351983	     -3.47305533	     -1.90513299	      2.88105962	     -2.65796980	     -0.24879991
      1.32500000	      0.68416205	      4.68467384	     -2.70320223	      0.20367339	      1.07005740	      0.33343582	     17.95804622	     -6.38454647	     -1.02903587	    -68.08531472	     -2.96874559	    -15.80984757	      3.92208050	      5.63493908	      9.20579774	     -4.44173493	     -7.44055066	      1.90333827	     -3.48906933	     -1.94714647	      2.84627010	     -2.65999278	     -0.29802619
      1.32916667	      0.68202935	      4.68957262	     -2.74134691	      0.20856005	      1.07047345	      0.33326870	     18.52835089	     -6.28606688	     -0.73487316	    -67.80808256	     -2.43283834	    -15.57397050	      3.83441238	      5.28862958	      9.24939359	     -4.38254841	     -7.32650270	      2.05411539	     -3.53147192	     -1.99417106	      2.81232933	     -2.65981723	     -0.35204344
      1.33333333	      0.68405766	      4.69235116	     -2.76983948	      0.21344816	      1.07088091	      0.33310254	     19.07262730	     -6.18286627	     -0.45032466	    -67.46387679	     -1.90977931	    -15.33166333	      3.74978814	      4.93498724	      9.29240231	     -4.30664278	     -7.20971792	      2.19786390	     -3.58496868	     -2.04472795	      2.77617942	     -2.65967799	     -0.40875924
      1.33750000	      0.67983540	      4.66384859	     -2.75504019	      0.21830783	      1.07130341	      0.33298118	     19.59032237	     -6.04041069	     -0.21625313	    -67.01212902	     -1.74441743	    -15.30152004	      3.73477482	      4.58684871	      9.29334174	     -4.18556958	     -7.09129202	      2.23892161	     -3.56654150	     -2.05370902	      2.69557232	     -2.64128877	     -0.43709313
      1.34166667	      0.71799163	      4.69721212	     -2.84106726	      0.22323367	      1.07171132	      0.33277621	     20.07846685	     -5.96330898	      0.10705588	    -66.56526931	     -1.20212924	    -15.14333298	      3.69984940	      4.16776625	      9.38656544	     -4.07827815	     -6.90759699	      2.42393171	     -3.62369130	     -2.07961232	      2.69848151	     -2.58570383	     -0.50254109
      1.34583333	      0.72661249	      4.69350529	     -2.86744572	      0.22814693	      1.07210291	      0.33266071	     20.55228644	     -5.83723427	      0.38748578	    -66.03546948	     -0.57334029	    -14.78536310	      3.65003384	      3.79190393	      9.42254841	     -3.99462496	     -6.76728388	      2.59729368	     -3.73410012	     -2.12334906	      2.65485405	     -2.60190387	     -0.57169144
      1.35000000	      0.73807648	      4.68615739	     -2.86746897	      0.23302451	      1.07247502	      0.33249717	     21.00164651	     -5.71565786	      0.64006061	    -65.43402951	     -0.08844141	    -14.42467210	      3.59089937	      3.41306832	      9.45849848	     -3.87176913	     -6.61769430	      2.69821996	     -3.82365507	     -2.17798464	      2.60775901	     -2.59607852	     -0.64398885
      1.35416667	      0.70136679	      4.65913658	     -2.82319714	      0.23788011	      1.07278598	      0.33241292	     21.47396542	     -5.56500445	      0.83720004	    -64.74267773	      0.07948001	    -14.37369491	      3.57685950	      3.09975139	      9.45659386	     -3.79115901	     -6.50326867	      2.74002034	     -3.84096736	     -2.19075807	      2.51637302	     -2.62609841	     -0.66638851
      1.35833333	      0.72667805	      4.68505236	     -2.84318135	      0.24275981	      1.07311515	      0.33216966	     21.88168510	     -5.48614407	      1.10322034	    -64.05945729	      0.78499274	    -13.82658828	      3.47320377	      2.69202197	      9.54330138	     -3.62188036	     -6.32075762	      2.89347270	     -4.05260315	     -2.30086063	      2.45211485	     -2.62676043	     -0.79791895
      1.36250000	      0.72535716	      4.67106401	     -2.85028119	      0.24773002	      1.07344256	      0.33207486	     22.27608680	     -5.34308664	      1.33314781	    -63.25128369	      0.97395393	    -13.80128453	      3.44663695	      2.30706372	      9.56682235	     -3.51964199	     -6.13873362	      2.96009852	     -4.08418828	     -2.32706141	      2.47581111	     -2.61995788	     -0.83193130
